<svg width="24px" height="24px" viewBox="0 0 12 12" fill="none" xmlns="http://www.w3.org/2000/svg"><path d="M7.841 5.453c0.115 0.385 -0.011 0.633 -0.283 0.868 -0.227 0.196 -0.739 0.017 -0.988 -0.127 -1.881 -1.089 1.311 -3.127 1.614 -0.55" stroke="#000000" stroke-opacity="0.9" stroke-width="0.48" stroke-linecap="round" stroke-linejoin="round"/><path d="M7.352 1.688C7.002 1.47 6.335 1.496 6.32 2.038c-0.021 0.754 1.283 0.973 1.207 0.433 -0.067 -0.475 -1.295 -0.524 -1.335 0.113 -0.061 0.955 1.178 0.878 1.009 0.705 -0.88 -0.236 -1.029 0.386 -0.326 0.729" stroke="#000000" stroke-opacity="0.5" stroke-width="0.36" stroke-linecap="round" stroke-linejoin="round"/><path d="M5.205 5.613c-0.457 0.152 -0.843 0.244 -1.199 0.533 -3.494 2.828 1.175 0.641 1.572 1.237 0.342 0.513 -0.39 2.461 -0.563 3.064" stroke="#000000" stroke-opacity="0.9" stroke-width="0.48" stroke-linecap="round" stroke-linejoin="round"/><path d="M5.243 5.689c0.686 1.363 1.77 0.856 3.124 0.856" stroke="#000000" stroke-opacity="0.9" stroke-width="0.48" stroke-linecap="round" stroke-linejoin="round"/><path d="M0.889 5.089c0.254 1.016 0.754 1.956 1.056 2.937" stroke="#000000" stroke-opacity="0.5" stroke-width="0.48" stroke-linecap="round" stroke-linejoin="round"/><path d="M2.048 8.026c0.844 -0.162 1.748 0.037 2.576 -0.129" stroke="#000000" stroke-opacity="0.5" stroke-width="0.48" stroke-linecap="round" stroke-linejoin="round"/><path d="M3.112 8.277c0.044 0.713 -0.03 1.423 0.076 2.131" stroke="#000000" stroke-opacity="0.5" stroke-width="0.48" stroke-linecap="round" stroke-linejoin="round"/><path d="M1.894 10.22c0.456 -0.846 2.124 -0.724 2.37 0.18" stroke="#000000" stroke-opacity="0.5" stroke-width="0.48" stroke-linecap="round" stroke-linejoin="round"/><path d="M6.394 10.256c-0.032 -0.939 -0.046 -1.882 0.052 -2.816" stroke="#000000" stroke-opacity="0.5" stroke-width="0.48" stroke-linecap="round" stroke-linejoin="round"/><path d="M10.414 7.288c-0.034 0.853 0.024 2.735 0.066 2.969" stroke="#000000" stroke-opacity="0.5" stroke-width="0.48" stroke-linecap="round" stroke-linejoin="round"/><path d="M5.776 6.755h5.328" stroke="#000000" stroke-opacity="0.5" stroke-width="0.48" stroke-linecap="round" stroke-linejoin="round"/><path d="M9.803 2.797c-0.183 0.761 -0.552 1.909 -0.747 2.885" stroke="#000000" stroke-opacity="0.9" stroke-width="0.48" stroke-linecap="round" stroke-linejoin="round"/><path d="M9.513 4.353c0.194 0.7 0.407 1.389 0.642 2.067" stroke="#000000" stroke-opacity="0.5" stroke-width="0.48" stroke-linecap="round" stroke-linejoin="round"/><path d="M9.569 6.615c0.232 -0.038 0.418 -0.028 0.67 -0.023" stroke="#000000" stroke-opacity="0.9" stroke-width="0.48" stroke-linecap="round" stroke-linejoin="round"/></svg>