<svg style="max-height: 500px" xmlns="http://www.w3.org/2000/svg" xmlns:xlink="http://www.w3.org/1999/xlink" version="1.1" viewBox="435.3707368421053 435.913056 210.99789473684208 212.3496" xml:space="preserve" width="23" height="24"><desc>Created with Fabric.js 5.2.4</desc><defs></defs><rect x="0" y="0" width="100%" height="100%" fill="transparent" /><g transform="matrix(1 0 0 1 540 540)" id="9d20888a-6475-43e5-a800-015e6334b7c6"></g><g transform="matrix(1 0 0 1 540 540)" id="be571eff-8ba0-4f25-960c-85b90de31fc2"><rect style="stroke: none; stroke-width: 90; stroke-dasharray: none; stroke-linecap: butt; stroke-dashoffset: 0; stroke-linejoin: miter; stroke-miterlimit: 4; fill: rgb(255,255,255); fill-rule: nonzero; opacity: 1; visibility: hidden;" x="-540" y="-540" rx="0" ry="0" width="1080" height="1080" /></g><g transform="matrix(0.13 0 0 -0.13 537.73 493.24)"><path style="stroke: rgb(0,0,0); stroke-width: 90; stroke-dasharray: none; stroke-linecap: butt; stroke-dashoffset: 0; stroke-linejoin: miter; stroke-miterlimit: 4; fill: rgb(0,0,0); fill-opacity: 0; fill-rule: nonzero; opacity: 1;" transform="translate(-996.45, -1346.61)" d="M 584 1761 C 236 1662 104 1218 340 941 C 376 898 393 907 384 965 C 371 1057 437 1195 525 1259 C 621 1328 590 1324 1177 1330 L 1710 1335 L 1741 1366 C 1766 1392 1772 1406 1772 1439 C 1771 1518 1658 1662 1552 1718 C 1445 1775 1404 1780 1005 1779 C 693 1779 637 1776 584 1761 z M 1435 1648 C 1484 1626 1479 1544 1428 1526 C 1354 1500 1302 1614 1372 1648 C 1402 1662 1405 1662 1435 1648 z" stroke-linecap="round" /></g><g transform="matrix(0.13 0 0 -0.13 559.09 569.45)"><path style="stroke: rgb(0,0,0); stroke-width: 90; stroke-dasharray: none; stroke-linecap: butt; stroke-dashoffset: 0; stroke-linejoin: miter; stroke-miterlimit: 4; fill: rgb(0,0,0); fill-opacity: 0; fill-rule: nonzero; opacity: 1;" transform="translate(-1153.54, -775)" d="M 622 1184 C 452 1099 466 855 645 779 C 666 770 777 764 1030 761 C 1367 755 1387 754 1432 733 C 1552 678 1630 559 1638 418 C 1641 375 1646 340 1650 340 C 1667 340 1725 418 1756 484 C 1871 728 1776 1026 1543 1152 C 1445 1206 1407 1210 1025 1210 L 674 1210 L 622 1184 z" stroke-linecap="round" /></g><g transform="matrix(0.13 0 0 -0.13 523.44 617.7)"><path style="stroke: rgb(0,0,0); stroke-width: 90; stroke-dasharray: none; stroke-linecap: butt; stroke-dashoffset: 0; stroke-linejoin: miter; stroke-miterlimit: 4; fill: rgb(0,0,0); fill-opacity: 0; fill-rule: nonzero; opacity: 1;" transform="translate(-885.73, -418.43)" d="M 288 617 C 236 569 239 517 300 423 C 375 309 478 237 605 209 C 648 200 761 196 1005 197 C 1389 198 1403 200 1464 271 C 1537 357 1539 478 1468 564 C 1404 641 1420 640 834 640 L 313 640 L 288 617 z" stroke-linecap="round" /></g></svg>